<?xml version="1.0" encoding="utf-8"?>
<!-- Generator: Adobe Illustrator 23.0.3, SVG Export Plug-In . SVG Version: 6.00 Build 0)  -->
<svg version="1.1" id="Layer_1" xmlns="http://www.w3.org/2000/svg" xmlns:xlink="http://www.w3.org/1999/xlink" x="0px" y="0px"
	 viewBox="0 0 395.9 327.3" style="enable-background:new 0 0 395.9 327.3;" xml:space="preserve">
<path d="M188.9,95.7C188.9,95.7,188.9,95.8,188.9,95.7c9.8-0.5,21.4,1.3,31.5,4c44.3,12.1,72.4,46.7,61.1,92
	c-9.8,39-69.6,60.1-105.2,58.1C86,244.8,27.8,184.2,43.4,112.2C59.2,39.3,151.8-2.2,243.3,18.3C313.8,34.1,370.9,99,385.1,147.5
	c-25.3-31.4-69.7-73.8-118.6-90.2c-83-27.9-162.2-1.7-182.4,52.9c-22.4,60.6,29.3,121.4,82,117.4h0c-34.1-9.1-57.3-34.4-59.6-66.4
	c-3-42.4,37.3-90.7,125.5-82.6c73.4,6.7,128.1,62.8,112.5,134.8c-15.8,72.9-108.3,115.8-199.7,95.3C74.3,292.8,32.3,226.6,12,177.9
	c25.3,31.4,64.7,74.8,113.5,91.2c83,27.9,164.4,1,181.9-54.5C327.3,151.7,279.8,80.8,188.9,95.7z"/>
</svg>
