<?xml version="1.0" encoding="utf-8"?>
<!-- Generator: Adobe Illustrator 23.0.3, SVG Export Plug-In . SVG Version: 6.00 Build 0)  -->
<svg version="1.1" id="Layer_1" xmlns="http://www.w3.org/2000/svg" xmlns:xlink="http://www.w3.org/1999/xlink" x="0px" y="0px"
	 viewBox="0 0 1920 852" style="enable-background:new 0 0 1920 852;" xml:space="preserve">
<g>
	<path d="M404.3,471.1c15.6-0.3,22.4,7,20.4,21.8c6.8,8,6.8,15.6-0.1,22.8c-6.9,7.2-18.5,12.6-34.7,16.2c-16.2,3.6-36.6,5.5-61,5.6
		c-24.4,0.1-51.2-2.6-80.2-8c0.5,28.2,7.5,54.3,20.9,78.5c13.4,24.2,28.1,47.3,44.1,69.2c16,21.9,30.8,43.2,44.5,63.6
		c13.7,20.5,20.8,41.1,21.1,61.8c0.2,9.6-2.7,16-8.5,19.1c-4.4,3-11,4.6-19.9,4.8c-7.4,0.1-15.4-2.5-24-7.9
		c-8.6-5.4-16.5-12.1-23.7-20.1c-7.2-8-13.8-16.4-19.9-25.2c-5.4-8.8-9.6-16.1-12.6-22c-3.1-5.9-7.5-14.3-13.3-25.3
		c-5.8-11-12.5-23.8-20.2-38.5c-7.7-14.7-15.4-29.9-23.1-45.7c-7.7-15.8-15.2-31-22.5-45.7c-7.3-14.7-13.7-27.9-19.1-39.7
		c-6.1-11-10.4-19.4-12.7-25.3l-12.4-12c-3.7,1.6-10.5,3.4-20.5,5.4c-10,2-20.5,4.3-31.5,6.7c-11.1,2.4-21.8,4.8-32.1,7.3
		c-10.3,2.4-17.7,3.7-22.2,3.7l-5.6,0.1c-5.9,0.1-10-1.8-12.3-5.9c-2.3-4-3.5-9-3.6-14.9c-0.2-12.6,4-22.3,12.8-29.1
		c8.8-6.8,19.4-11.8,32-15c12.5-3.2,25.6-5.5,39.3-6.8c13.7-1.4,25-2.5,33.8-3.4c-1.9-22.2-3.5-48.4-4.8-78.8
		c-1.3-30.3-0.4-61.8,2.7-94.5c3.1-32.6,8.6-64.8,16.6-96.4c7.9-31.6,19.6-60.2,35.1-85.7c15.5-25.5,35.3-46.2,59.4-62.2
		c24.2-16,54-24.3,89.6-25c20-0.4,41.9,4.2,65.8,13.8c23.9,9.6,46.1,22.3,66.8,38.2c20.7,15.9,37.9,33.9,51.6,54.1
		c13.7,20.1,20.7,40.6,21.1,61.3l-25.5,0.5c-14.8,0.3-28.1-5-39.7-15.9c-11.7-10.9-24-23.1-36.8-36.6
		c-12.9-13.5-26.4-25.6-40.7-36.5c-14.3-10.8-30.3-16.1-48.1-15.8c-25.2,0.5-48,6.4-68.6,17.9c-20.5,11.5-38,26.6-52.5,45.4
		c-14.5,18.8-25.2,39.7-32.2,62.8c-7,23.1-10.3,46.5-9.8,70.2l0.2,11.1l22.9,158.5c1.5,1.5,5.6,2.7,12.3,3.7
		c6.7,1,17.3,2.3,31.7,3.9c14.5,1.6,33.8,3.3,57.9,5C336.6,467.9,367.2,469.6,404.3,471.1z"/>
	<path d="M509.5,813.7c-8.4-52.4-14-104.8-16.8-156.9c-2.8-52.2-4.7-104.5-5.7-157.1c-1-52.6-1.2-104.8-0.7-156.7
		c0.5-51.8-0.1-103.7-1.8-155.5c-0.1-5.9,2-10,6.4-12.3c4.4-2.3,9.6-3.5,15.5-3.6c6.7-0.1,12.6,2.2,17.9,6.9
		c5.3,4.7,9.8,10.6,13.7,17.5c3.8,7,6.7,14,8.7,21c2,7,3,12.7,3.1,17.2c6.4,105.8,11,194.1,13.8,264.8c2.8,70.7,3.8,127.7,3.2,171.1
		c-0.7,43.3-2.5,75.4-5.4,96.2c-2.9,20.8-7,35-12,42.4c-5.1,7.5-11.1,10.6-18.2,9.2C524.1,816.4,516.9,815,509.5,813.7z"/>
	<path d="M616.3,522.8c-0.7-38.5,4.3-75.4,15.2-110.8c10.8-35.4,26.9-66.6,48.3-93.7c21.3-27.1,47.6-48.8,78.8-65.3
		c31.2-16.5,67.5-25.1,109-25.9c24.5,2.5,45.9,8.8,64.2,18.8c18.3,10,33.4,22.5,45.1,37.5c11.8,15,20.4,32.4,26,52.3
		c4.8,19.2,7.4,39.9,7.8,62.1c0.5,26.7-6.8,50.9-22,72.6c-15.2,21.8-34.5,40.1-57.9,55c-23.4,14.9-48.8,26.5-76,34.7
		c-27.3,8.3-52.7,12.6-76.4,13.1c-8.9,0.2-18,0.3-27.2,0.5c-9.3,0.2-17.6-1.1-25.1-4c-7.5-2.8-13.5-7.1-18-13
		c-4.6-5.8-6.9-14.7-7.2-26.5c-0.1-3.7,0.4-6.8,1.5-9.5c1.1-2.6,4.2-4.5,9.3-5.7c5.1-1.2,12.9-1.5,23.3-1
		c10.4,1.3,24.5,3.3,42.3,5.9c10.4-0.2,25.3-4,44.8-11.4c19.5-7.4,39.3-16.8,59.5-28.3c20.2-11.5,37.5-24.6,52.1-39.3
		c14.5-14.7,21.7-29.1,21.4-43.2c-0.3-14.8-3-29.4-8-43.7c-5.1-14.4-12.5-27-22.4-37.9c-9.8-10.9-21.3-19.6-34.4-26
		c-13.1-6.4-27.8-8.7-44-7c-25.9,2.7-49.3,10.2-70.2,22.4c-20.9,12.2-38.6,27.9-53,47.1c-14.5,19.2-25.6,40.3-33.3,63.4
		c-7.7,23.1-11.4,47.3-10.9,72.4c0.4,19.3,1.1,38.5,2.2,57.7c1.1,19.3,4.2,38.1,9.4,56.5c5.1,18.4,13.3,36.1,24.3,52.9
		c11,16.8,26.9,31.6,47.5,44.1c20.6,12.6,46.5,22.9,77.8,30.8c31.3,7.9,69.9,12.6,115.8,14l198.6-17c-11.6,16.5-26.3,30.1-44.3,40.8
		c-18,10.7-37.1,19.4-57.3,26.1c-20.3,6.7-40.3,11.7-60.3,15c-19.9,3.3-38.8,5.2-56.6,5.5c-43,0.8-83.4-5.5-121.5-18.9
		c-38-13.4-71.7-32.6-101.1-57.6c-29.4-25-52.7-55.7-70-92.1C626.3,609.8,617.2,568.7,616.3,522.8z"/>
	<path d="M1569.6,696.3c-28.9,40.5-58.2,69-87.9,85.5c-29.7,16.5-58.1,24-85.1,22.7c-27.1-1.3-52.8-10.7-77.2-28
		c-24.4-17.3-45.6-39.2-63.4-65.5c-17.9-26.3-32.5-56.2-43.9-89.8c-11.4-33.5-17.7-67.6-19.1-102.4c-1.4-34.8,2.6-68.8,12-101.9
		c9.4-33.1,25.7-62.9,48.9-89.2c11.9,4.2,18.7,10,20.3,17.4c1.6,8.1,2.5,16.6,2.7,25.5c0.2,12.6-0.8,24.7-3.2,36.2
		c-2.4,11.5-5,23.3-7.7,35.1c-2.7,11.9-5.3,24.2-7.7,36.8c-2.4,12.6-3.4,25.6-3.2,39c0.2,9.6,1.5,21.6,4,36
		c2.5,14.4,5.9,29.7,10.3,45.9c4.4,16.2,10,32.2,17,48c7,15.8,15.2,30.1,24.7,42.9c9.5,12.8,19.9,23.4,31.1,31.6
		c11.3,8.3,23.9,12.3,38,12.1c12.6-0.2,27.5-4.4,44.8-12.5c17.2-8.1,33.7-18.2,49.4-30.4c15.7-12.1,28.8-25.7,39.3-40.7
		c10.5-15,15.6-29.9,15.3-44.7l4-144.5c0-2.2,1.4-4.5,4.3-6.7c2.9-2.3,6-4.4,9.3-6.3c3.3-1.9,6.8-3.6,10.5-5.2
		c3.7-1.5,6.2-2.3,7.7-2.4c10.4-0.2,17.5,6.3,21.5,19.6c3.9,13.3,7.2,30.4,9.8,51.5c2.6,21.1,5.6,43.4,9,67.1
		c3.4,23.7,9.2,45.9,17.3,66.9c8.2,21,20.2,38,35.9,51c15,13.1,36.6,19.3,64.8,18.8c27.4-1.2,49.1-7.4,65.2-18.4
		c16.1-11,27.7-25.5,34.8-43.4c7.1-17.9,10.2-37.8,9.5-59.6c-0.8-21.8-4.1-43.6-10.1-65.4c-6-21.7-13.8-42.5-23.4-62.4
		c-9.6-19.8-20.1-37-31.5-51.6c-1.6-5.9-1.7-10.1-0.2-12.8c1.4-2.6,3.4-4.5,6-5.7c2.6-1.2,5.7-1.9,9.4-2.4c3.7-0.4,6.7-0.7,8.9-0.7
		c11.9,2.7,24.9,12.3,38.9,28.7c14,16.4,26.4,36,37.2,58.8c10.8,22.8,19.2,48.2,25.3,76.2c6.1,28.1,8.1,55.8,6,83.2
		c-2.1,27.5-9.6,53.2-22.5,77.1c-12.9,24-32.9,43.6-60,58.9c-32.6,2.8-59.2,4.6-79.9,5.4c-20.7,0.8-38,0.3-51.7-1.3
		c-13.7-1.6-24.7-4.5-32.9-8.8c-8.2-4.3-16.1-9.9-23.6-16.8c-7.5-6.9-15.7-15.1-24.3-24.6C1595.5,720.7,1583.9,709.4,1569.6,696.3z"
		/>
</g>
</svg>
