<svg id="Layer_1" data-name="Layer 1" xmlns="http://www.w3.org/2000/svg" xmlns:xlink="http://www.w3.org/1999/xlink" viewBox="0 0 904 534"><defs><style>.cls-1{fill:#040036;}.cls-2{fill:url(#linear-gradient);}</style><linearGradient id="linear-gradient" x1="309.2" y1="179.56" x2="554.09" y2="350.54" gradientTransform="matrix(1, 0, 0, -1, 0, 536)" gradientUnits="userSpaceOnUse"><stop offset="0.01" stop-color="#584ea1"/><stop offset="0.13" stop-color="#564ea1"/><stop offset="0.26" stop-color="#654fa1"/><stop offset="0.43" stop-color="#7c51a1"/><stop offset="0.63" stop-color="#e53293"/><stop offset="0.88" stop-color="#ed1b71"/><stop offset="1" stop-color="#ed1d64"/></linearGradient></defs><title>cloudpulso</title><rect class="cls-1" width="904" height="534"/><path class="cls-2" d="M478.83,224.13A16.36,16.36,0,1,0,502,201.05a92.4,92.4,0,0,0-131.68,2.24A14.17,14.17,0,0,1,350,183.62a120.75,120.75,0,1,1,1,167.79,14.34,14.34,0,0,1-4.18-10.1,14.09,14.09,0,0,1,14.1-14.09,14.28,14.28,0,0,1,10.3,4.35,92.13,92.13,0,0,0,66.13,27.86c46,0,86.69-33.29,91.24-77.64a16.52,16.52,0,0,0-30.86-8.89,12.58,12.58,0,0,0-1.31,3c-.4,1.46-.94,4.46-1.27,5.94-.21.94-.5,1.85-.78,2.76a59.63,59.63,0,1,1-15.5-60.42" transform="translate(-0.04)"/></svg>