<svg id="Layer_1" data-name="Layer 1" xmlns="http://www.w3.org/2000/svg" viewBox="0 0 1366 768"><defs><style>.cls-1{fill:#101933;}.cls-2{fill:#f2f2f2;}.cls-3{fill:#f15a24;}</style></defs><title>firetask-logo-concept</title><rect class="cls-1" width="1366" height="768"/><path class="cls-2" d="M519,354.93a146.32,146.32,0,0,0-26-43.79,125,125,0,0,0-32.23-26.87C449,277.56,437.33,274,427.1,274a11.58,11.58,0,0,0-11.19,14.5c6.11,23.36-7,43.49-20.92,64.8-12.23,18.75-24.88,38.13-24.88,61a79.71,79.71,0,0,0,159.41,0A166.36,166.36,0,0,0,519,354.93M449.82,470.84a56.63,56.63,0,0,1-56.57-56.56c0-15.95,10.26-31.67,21.12-48.32,12.4-19,26.34-40.37,26.24-65.79,8.07,3.17,21.25,10.33,34.87,26.1a122.87,122.87,0,0,1,21.85,36.89,143.22,143.22,0,0,1,9.05,51.12,56.63,56.63,0,0,1-56.56,56.56"/><path class="cls-3" d="M474.07,397.06c-11.85-15.65-26.2-24.63-39.39-24.63a11.56,11.56,0,0,0-11.37,13.73c1.21,6.37-1.56,12.38-5.38,20.69-4.67,10.13-10,21.62-10,37.71,0,15.48,4.36,28.3,12.6,37.08a40.86,40.86,0,0,0,58.51,0c8.24-8.79,12.6-21.61,12.6-37.09,0-15.17-6.58-32.93-17.6-47.5M462.2,465.81a17.76,17.76,0,0,1-24.77,0c-4.14-4.41-6.33-11.76-6.33-21.25,0-11,3.81-19.28,7.84-28a98.36,98.36,0,0,0,6.31-16.17A57,57,0,0,1,455.61,411c8.09,10.69,12.92,23.23,12.92,33.54,0,9.49-2.19,16.84-6.33,21.25"/><path class="cls-2" d="M566.3,458V373.63H553.49q0-8.13.2-11.79c.14-2.44.58-4,1.33-4.57a5.51,5.51,0,0,1,3.55-.92h7.73V344.56q0-12,3.35-19.21a26.09,26.09,0,0,1,9-11,33.52,33.52,0,0,1,12.3-5.09A71.41,71.41,0,0,1,604.72,308q12.62,0,19.11,3t6.51,8.84a36.13,36.13,0,0,1-.61,6,28.26,28.26,0,0,1-1.63,6,38.2,38.2,0,0,0-10.47-3.86,53.86,53.86,0,0,0-12.09-1.43A53.18,53.18,0,0,0,598,327a12.71,12.71,0,0,0-5.89,2.34,11.5,11.5,0,0,0-3.76,5.29A26.64,26.64,0,0,0,587,344v12.4h11.79q0,7.93-.31,11.69c-.2,2.51-.58,4.07-1.12,4.68a3.36,3.36,0,0,1-2.64.91H587v80.51c-.68,2.58-2,3.86-3.87,3.86Zm39.44,0V365.5q0-4.68,1.73-6.51t6.3-2.23q4.58-.4,13.11-.41v97.79a3.35,3.35,0,0,1-.91,2.75c-.61.47-2.37.78-5.29.91S612.79,458,605.74,458Z"/><path class="cls-2" d="M641.32,458V363.47A54.3,54.3,0,0,1,654,357a44.33,44.33,0,0,1,15.35-2.64q8.13,0,11,2.33t2.85,7.22a47.4,47.4,0,0,1-.41,5.39,26,26,0,0,1-1.83,6.81,16,16,0,0,0-4.06-1.42,20.89,20.89,0,0,0-4.07-.41,16.81,16.81,0,0,0-5.08.92,15.36,15.36,0,0,0-5.09,2.74l-.2,76.24a3.35,3.35,0,0,1-.91,2.75c-.61.47-2.38.78-5.29.91S648.36,458,641.32,458Z"/><path class="cls-2" d="M713.9,460A38.64,38.64,0,0,1,701,458a22.31,22.31,0,0,1-10.06-7.31q-4.27-5.29-6.61-14.64T682,412.26q0-18.7,2.95-30.19t7.93-17.49a25.1,25.1,0,0,1,11.48-8.13A43.54,43.54,0,0,1,718,354.32q12.19,0,19,7.82t6.82,25.11c0,4.75-.18,9.66-.51,14.74a64,64,0,0,1-2.14,13.32,98.47,98.47,0,0,1-14.23,2c-5.28.41-10.44.71-15.45.92s-10.71.3-17.08.3l.41-16.67c4.2.14,7.89.2,11.08.2a84.41,84.41,0,0,0,9.35-.5,33.59,33.59,0,0,0,7.42-1.53,23.51,23.51,0,0,0,.81-5.28q.21-3.25.21-5.7,0-10.15-1.83-13.42c-1.22-2.16-3.46-3.25-6.71-3.25a7.13,7.13,0,0,0-5.08,2.14,15.35,15.35,0,0,0-3.66,6.71,61.29,61.29,0,0,0-2.14,11.89q-.71,7.32-.71,17.89a107.62,107.62,0,0,0,.71,13.42,29.06,29.06,0,0,0,2.34,8.84,10.86,10.86,0,0,0,4.58,5,15.12,15.12,0,0,0,7.42,1.63A39.64,39.64,0,0,0,730,438.28,65.13,65.13,0,0,0,740.74,434a29.69,29.69,0,0,1,1.42,6.81q.4,4,.41,7c0,2.58-1.33,4.78-4,6.61a29.16,29.16,0,0,1-10.47,4.16A66.54,66.54,0,0,1,713.9,460Z"/><path class="cls-2" d="M780,460q-8.94,0-13.31-3.46t-5.8-10.06A74.64,74.64,0,0,1,759.44,431V374H746.63c0-5.29.07-9.18.21-11.69s.5-4.14,1.11-4.88a3.62,3.62,0,0,1,2.95-1.12h8.54V326.46q0-3.45,1.73-4.77c1.15-.88,3.22-1.43,6.2-1.63s7.25-.31,12.81-.31v36.6h17.89c0,5.29,0,9.18-.1,11.69s-.41,4.14-1,4.88a3.58,3.58,0,0,1-3,1.12H780.18v56.52c0,1.9.07,3.79.2,5.69a8.28,8.28,0,0,0,1.43,4.47,4.72,4.72,0,0,0,4.06,1.63,22.55,22.55,0,0,0,5.49-.61,24.43,24.43,0,0,0,5.49-2.24c.27,1.36.54,2.88.81,4.58a35.59,35.59,0,0,1,.41,5.59c0,3-1,5.22-3,6.71a16.1,16.1,0,0,1-7.11,2.95A48.25,48.25,0,0,1,780,460Z"/><path class="cls-2" d="M830,460a56.27,56.27,0,0,1-10.88-1,21.65,21.65,0,0,1-9.25-4.17,20.69,20.69,0,0,1-6.4-9.45q-2.34-6.3-2.34-16.88,0-10.36,2-17a25.17,25.17,0,0,1,5.59-10.27,17.68,17.68,0,0,1,7.93-4.88,33.67,33.67,0,0,1,9.05-1.22,57.5,57.5,0,0,1,6.61.51,16.56,16.56,0,0,1,7,2.34V383.39a11.86,11.86,0,0,0-1-5.39,6.22,6.22,0,0,0-3.15-2.84,15.06,15.06,0,0,0-5.8-.92,72.18,72.18,0,0,0-13.32,1.32,73.55,73.55,0,0,0-11.89,3.15,21.68,21.68,0,0,1-2.24-6.4,33,33,0,0,1-.61-5.59A10.74,10.74,0,0,1,802,363,6.7,6.7,0,0,1,804,360q2.43-1.62,10.57-3.66a84.78,84.78,0,0,1,20.13-2q13.62,0,19.51,5.49t5.9,19.31v33.55q0,12-.2,22.56t-.82,18.1a48.94,48.94,0,0,1-12.3,4.78A67.09,67.09,0,0,1,830,460ZM831.62,443a13.22,13.22,0,0,0,4.16-.71,6.25,6.25,0,0,0,3-1.73c.14-1.76.27-4.3.41-7.62s.2-6.85.2-10.58V412.06a7.85,7.85,0,0,0-3.35-1.33,22.34,22.34,0,0,0-3.36-.3,10.66,10.66,0,0,0-3.86.71,6.91,6.91,0,0,0-3.15,2.64,14.93,14.93,0,0,0-2,5.39,44,44,0,0,0-.72,8.74,41,41,0,0,0,.51,7.22,13.39,13.39,0,0,0,1.63,4.58,6.14,6.14,0,0,0,2.74,2.54A9.69,9.69,0,0,0,831.62,443Z"/><path class="cls-2" d="M890.78,460a50,50,0,0,1-17.08-2.54q-6.91-2.55-6.91-8.85a24.8,24.8,0,0,1,.71-5.39,23.64,23.64,0,0,1,2.54-6.4,47.3,47.3,0,0,0,9.15,3.46,37,37,0,0,0,9.35,1.22q6.11,0,9.25-2.65a9,9,0,0,0,3.15-7.32,19.74,19.74,0,0,0-1-6,18.09,18.09,0,0,0-4.68-6.81L877,400.67a36,36,0,0,1-8-11.28,26.83,26.83,0,0,1-2.34-10.27,24.82,24.82,0,0,1,3.26-12.71q3.24-5.58,10.67-8.84t19.62-3.25q11,0,16.37,2.13t7,5a10.84,10.84,0,0,1,1.63,5.29,15.7,15.7,0,0,1-4.07,10.16,34.48,34.48,0,0,0-8.74-3.55,39.09,39.09,0,0,0-9.56-1.12q-5.68,0-8.64,1.93a6.11,6.11,0,0,0-3,5.39,10.63,10.63,0,0,0,1.12,4.27c.75,1.62,2.54,3.79,5.39,6.5L914,405.75q6.3,6.72,8.54,12.2a35,35,0,0,1,2.24,13.22q0,13.41-9.15,21.14T890.78,460Z"/><path class="cls-2" d="M932.05,458V317.72c0-3.12.57-5.28,1.73-6.5s3.21-2,6.2-2.24,7.32-.41,13-.41v52.66a40.65,40.65,0,0,1,10.47-5,39.83,39.83,0,0,1,12.3-1.93q6.91,0,10.57,2.54a13.22,13.22,0,0,1,5.08,6.5,24.21,24.21,0,0,1,1.43,8.24,42.41,42.41,0,0,1-1.32,10.88,41.5,41.5,0,0,1-3.46,8.94,38.87,38.87,0,0,1-4.47,6.71q-2.34,2.75-4.17,4.57a28.75,28.75,0,0,1,8.64,8.75,44.52,44.52,0,0,1,5.49,12.6,73.46,73.46,0,0,1,2.34,15.66c0,2.3,0,4.74-.1,7.32s-.24,5.08-.51,7.52A3.41,3.41,0,0,1,994,457c-.75.54-2.72.85-5.9.91s-8.64.1-16.37.1q.4-5.89.61-11.48t0-10.47A82.77,82.77,0,0,0,971,425.58a32.31,32.31,0,0,0-2.44-7.73,10,10,0,0,0-3.76-4.47,6.82,6.82,0,0,0-5.08-.71,14.08,14.08,0,0,0-3.25,1.11,28.84,28.84,0,0,0-3.46,2.14v38.22a3.61,3.61,0,0,1-.81,2.75c-.55.47-2.28.78-5.19.91S939.09,458,932.05,458ZM953,401.69a38.26,38.26,0,0,0,8.94-5.59,22.83,22.83,0,0,0,5.7-7.32,21.37,21.37,0,0,0,2-9.46q0-6.49-5.29-6.5a10.73,10.73,0,0,0-5.89,1.83,22.17,22.17,0,0,0-5.49,5.28Z"/></svg>