<svg id="Layer_1" data-name="Layer 1" xmlns="http://www.w3.org/2000/svg" xmlns:xlink="http://www.w3.org/1999/xlink" viewBox="0 0 234 116"><defs><style>.cls-1{fill:#1b1569;}.cls-2{fill:#fff;}.cls-3{fill:url(#linear-gradient);}</style><linearGradient id="linear-gradient" x1="97.07" y1="1060.19" x2="137.11" y2="1099.88" gradientTransform="translate(0 -1024)" gradientUnits="userSpaceOnUse"><stop offset="0" stop-color="#00f0ff"/><stop offset="1" stop-color="#016cff"/></linearGradient></defs><title>inflcr</title><rect class="cls-1" width="234" height="116"/><path class="cls-2" d="M96.76,29h46.83a.53.53,0,0,1,.53.64L136,80.87c0,.22-.32.43-.54.43h-20a.37.37,0,0,0-.32.11L106,86.89a.56.56,0,0,1-.86-.43V82a.51.51,0,0,0-.54-.54H88.49a.54.54,0,0,1-.54-.64l8.27-51.34A.72.72,0,0,1,96.76,29Z"/><path class="cls-3" d="M118.67,53.38,118,56.92c0,.22-.33.43-.54.43h-3.55a.53.53,0,0,1-.53-.64l.64-3.65c0-.22.32-.43.54-.43h3.54A.83.83,0,0,1,118.67,53.38Zm25.78-23.74L136.18,81c0,.32-.33.43-.54.43h-20a.39.39,0,0,0-.32.11L106.1,87a.55.55,0,0,1-.85-.53V82a.51.51,0,0,0-.54-.54H88.6c-.32,0-.65-.32-.54-.64l8.27-51.34a.49.49,0,0,1,.54-.43h47A.54.54,0,0,1,144.45,29.64Zm-15.9,17.83H126.3a.53.53,0,0,1-.54-.64l.54-3.12a.6.6,0,0,0-.54-.64h-4.94a.49.49,0,0,0-.54.43L119.74,47c0,.32-.32.43-.53.43h-3.55a.53.53,0,0,1-.53-.64l.53-3.12a.59.59,0,0,0-.53-.64h-4.94a.49.49,0,0,0-.54.43L109.11,47c0,.32-.32.43-.54.43H106a.5.5,0,0,0-.54.43L104.82,52a.6.6,0,0,0,.53.65h2.26a.54.54,0,0,1,.54.64l-.65,3.87c0,.32-.32.43-.54.43h-2.57a.49.49,0,0,0-.54.43l-.65,4.08a.6.6,0,0,0,.54.64H106a.53.53,0,0,1,.53.65L106,66.59a.59.59,0,0,0,.53.64h4.94a.49.49,0,0,0,.54-.43l.54-3.54c0-.32.32-.43.54-.43h3.54a.54.54,0,0,1,.54.64l-.54,3.23a.6.6,0,0,0,.54.64h4.94a.48.48,0,0,0,.53-.43l.54-3.54c0-.33.32-.43.54-.43h2.58a.49.49,0,0,0,.53-.43l.65-4.08a.61.61,0,0,0-.54-.65h-2.26a.53.53,0,0,1-.53-.64l.64-3.87c0-.32.32-.43.54-.43h2.58a.48.48,0,0,0,.53-.43l.65-4.08C129.2,47.79,128.87,47.47,128.55,47.47Z"/></svg>