<?xml version="1.0" encoding="utf-8"?>
<!-- Generator: Adobe Illustrator 23.0.3, SVG Export Plug-In . SVG Version: 6.00 Build 0)  -->
<svg version="1.1" id="Layer_1" xmlns="http://www.w3.org/2000/svg" xmlns:xlink="http://www.w3.org/1999/xlink" x="0px" y="0px"
	 viewBox="0 0 1228.7 534.9" style="enable-background:new 0 0 1228.7 534.9;" xml:space="preserve">
<style type="text/css">
	.st0{fill:#120E46;}
	.st1{fill:url(#SVGID_1_);}
	.st2{fill:url(#SVGID_2_);}
	.st3{fill:url(#SVGID_3_);}
	.st4{fill:url(#SVGID_4_);}
	.st5{fill:#FFFFFF;}
</style>
<title>irontribe</title>
<rect class="st0" width="1228.7" height="534.9"/>
<g id="Layer_1-2">
	
		<linearGradient id="SVGID_1_" gradientUnits="userSpaceOnUse" x1="334.584" y1="917.6849" x2="273.0312" y2="740.7388" gradientTransform="matrix(1 0 0 1 0 -543.08)">
		<stop  offset="0" style="stop-color:#EF3A42"/>
		<stop  offset="1" style="stop-color:#F36D26"/>
	</linearGradient>
	<polygon class="st1" points="322.1,258.6 322.1,232 263.1,173 236.5,173 236.5,199.6 295.6,258.6 	"/>
	
		<linearGradient id="SVGID_2_" gradientUnits="userSpaceOnUse" x1="302.5228" y1="928.8413" x2="240.97" y2="751.8876" gradientTransform="matrix(1 0 0 1 0 -543.08)">
		<stop  offset="0" style="stop-color:#EF3A42"/>
		<stop  offset="1" style="stop-color:#F36D26"/>
	</linearGradient>
	<polygon class="st2" points="322.1,276.3 322.1,302.9 263.1,361.9 236.5,361.9 236.5,335.4 295.6,276.3 	"/>
	
		<linearGradient id="SVGID_3_" gradientUnits="userSpaceOnUse" x1="410.9479" y1="891.1285" x2="349.3951" y2="714.1748" gradientTransform="matrix(1 0 0 1 0 -543.08)">
		<stop  offset="0" style="stop-color:#EF3A42"/>
		<stop  offset="1" style="stop-color:#F36D26"/>
	</linearGradient>
	<polygon class="st3" points="407.7,258.6 407.7,232 348.7,173 322.1,173 322.1,199.6 381.2,258.6 	"/>
	
		<linearGradient id="SVGID_4_" gradientUnits="userSpaceOnUse" x1="378.8871" y1="902.2772" x2="317.3342" y2="725.3311" gradientTransform="matrix(1 0 0 1 0 -543.08)">
		<stop  offset="0" style="stop-color:#EF3A42"/>
		<stop  offset="1" style="stop-color:#F36D26"/>
	</linearGradient>
	<polygon class="st4" points="407.7,276.3 407.7,302.9 348.7,361.9 322.1,361.9 322.1,335.4 381.2,276.3 	"/>
	<path class="st5" d="M977.3,304h-2.6v-1.4h6.6v1.4h-2.6v7.7h-1.4L977.3,304z M983,302.6h2.1l2.5,6.9l2.5-6.9h2.1l0,9.1h-1.3v-7.7
		l0,0l-2.8,7.7h-0.9l-2.7-7.7l0,0v7.7H983L983,302.6z"/>
	<path class="st5" d="M488.6,235.5v23.4l-8.3,7.4l-2.8-2.5v-32L488.6,235.5z M488.6,276v25.8l-4.2,9.8c-3.7-0.8-6-2.9-6.9-6.1v-34.4
		l2.8-2.5L488.6,276z M521.9,233h-33.2l-11.1-3.7c0.9-3.3,3.2-5.3,6.9-6.1h41.5L521.9,233z M524.7,262.5l5.5,4.9l-5.5,4.9h-36.1
		l-5.6-4.9l5.6-4.9H524.7z M491.4,274.8h8.3l36.1,32c-1.9,3.3-5.6,4.9-11.1,4.9l-33.3-29.5L491.4,274.8z M524.7,258.8V233l4.2-9.8
		c3.7,0.8,6,2.9,6.9,6.1v34.4l-2.8,2.5L524.7,258.8z"/>
	<path class="st5" d="M443.2,276.1v25.8l4.2,9.8c3.7-0.8,6-2.9,6.9-6.1v-34.4l-2.8-2.5L443.2,276.1z"/>
	<path class="st5" d="M447.3,223.2l-4.2,9.8v25.8l8.3,7.4l2.8-2.5v-34.4C453.4,226.1,451,224,447.3,223.2z"/>
	<path class="st5" d="M561.8,266.2l-2.8-2.5v-28.3l6.9-6.1l4.2,3.7v25.8L561.8,266.2z M570.2,276.1v25.8l-4.2,3.7l-6.9-6.1v-28.3
		l2.8-2.5L570.2,276.1z M603.5,233H573l-5.5-4.9l5.5-4.9h30.5l5.6,4.9L603.5,233z M609,306.8l-5.6,4.9H573l-5.5-4.9l5.5-4.9h30.5
		L609,306.8z M606.3,258.8V233l4.2-3.7l6.9,6.1v28.3l-2.8,2.5L606.3,258.8z M614.6,268.7l2.8,2.5v28.3l-6.9,6.1l-4.2-3.7v-25.8
		L614.6,268.7z"/>
	<path class="st5" d="M734.1,235.5v23.4l-8.3,7.4l-2.8-2.5v-32L734.1,235.5z M734.1,276v25.8l-4.2,9.8c-3.7-0.8-6-2.9-6.9-6.1v-34.4
		l2.8-2.5L734.1,276z M767.4,233h-33.2l-11.1-3.7c0.9-3.3,3.2-5.3,6.9-6.1h41.5L767.4,233z M770.2,262.5l5.6,4.9l-5.5,4.9h-36.1
		l-5.6-4.9l5.5-4.9H770.2z M736.8,274.8h8.3l36.1,32c-1.9,3.3-5.6,4.9-11.1,4.9l-33.3-29.5L736.8,274.8z M770.2,258.8V233l4.2-9.8
		c3.7,0.8,6,2.9,6.9,6.1v34.4l-2.8,2.5L770.2,258.8z"/>
	<path class="st5" d="M804.4,258.8V233l4.2-9.8c3.7,0.8,6,2.9,6.9,6.1v34.4l-2.8,2.5L804.4,258.8z M812.8,267.5l2.8,2.5v34.4
		c-0.9,3.3-3.2,5.3-6.9,6.1l-4.2-9.8v-25.8L812.8,267.5z"/>
	<path class="st5" d="M883.2,233h-33.3l-11.1-3.7v-6.1h44.4l5.6,4.9L883.2,233z M849.8,235.5v23.4l-8.3,7.4l-2.8-2.5v-32
		L849.8,235.5z M838.7,303.1v-32l2.8-2.5l8.3,7.4v23.4L838.7,303.1z M888.6,306.8l-5.5,4.9h-44.3v-6.1l11.1-3.7H883L888.6,306.8z
		 M886,262.5l5.6,4.9l-5.6,4.9h-36.1l-5.5-4.9l5.5-4.9H886z M886,258.8V233l4.2-3.7l6.9,6.1v28.3l-2.8,2.5L886,258.8z M894.3,268.7
		l2.8,2.5v28.3l-6.9,6.1l-4.2-3.7v-25.8L894.3,268.7z"/>
	<path class="st5" d="M931.2,235.5v23.4l-8.3,7.4l-2.8-2.5v-32L931.2,235.5z M920.1,303.1v-32l2.8-2.5l8.3,7.4v23.4L920.1,303.1z
		 M972.9,311.7h-45.8c-3.7-0.8-6-2.9-6.9-6.1l11.1-3.7h37.5L972.9,311.7z M968.7,233h-37.4l-11.1-3.7c0.9-3.3,3.2-5.3,6.9-6.1h45.7
		L968.7,233z M967.3,262.5l5.6,4.9l-5.6,4.9h-36.1l-5.6-4.9l5.6-4.9H967.3z"/>
	<path class="st5" d="M711.2,223.2h-35c-3.7,0.8-6,2.9-6.9,6.1l11.1,3.7H707l11.1-3.7C717.2,226.1,714.9,224,711.2,223.2z"/>
	<polygon class="st5" points="654.4,234.3 654.4,241.6 675.2,260.1 685,260.1 685,253.9 662.7,234.3 	"/>
	<path class="st5" d="M640.5,230.6V265l2.8,2.5l8.3-7.4v-25.8l-4.2-9.8C643.8,225.2,641.5,227.3,640.5,230.6z"/>
	<path class="st5" d="M640.5,271.1v34.4c0.9,3.3,3.2,5.3,6.9,6.1l4.2-9.8v-25.8l-8.3-7.4L640.5,271.1z"/>
	<path class="st5" d="M688.1,276.1v25.8l4.2,9.8c3.7-0.8,6-2.9,6.9-6.1v-34.4l-2.8-2.5L688.1,276.1z"/>
	<polygon class="st5" points="688.1,260.1 696.4,267.5 699.2,265 699.2,235.2 688.1,235.2 	"/>
</g>
</svg>
