<svg id="Layer_1" data-name="Layer 1" xmlns="http://www.w3.org/2000/svg" viewBox="0 0 678.5 245"><defs><style>.cls-1{fill:#270202;}.cls-2{fill:#346195;}.cls-3{fill:#e82225;}.cls-4{fill:#d7dfea;}.cls-5{fill:none;stroke:#808285;stroke-width:5px;}</style></defs><title>ontime</title><rect class="cls-1" width="678.5" height="245"/><path class="cls-2" d="M349.26,126.38l.66-2.91a8.64,8.64,0,0,0,7,3.56,10.85,10.85,0,0,0,8.28-3.49,12.59,12.59,0,0,0,3.27-9,13.43,13.43,0,0,0-1.23-5.44,19.17,19.17,0,0,0-4.8-6,26.93,26.93,0,0,1-4.14-4.36,4.25,4.25,0,0,1-.65-2.11,2.35,2.35,0,0,1,.94-2,4,4,0,0,1,2.55-.8,4.24,4.24,0,0,1,2.9.94,3.19,3.19,0,0,1,1.16,2.4,3.1,3.1,0,0,1-.07.8H371l2.26-10.17h-5.82l-.58,2.76a8.83,8.83,0,0,0-7.12-3,9.51,9.51,0,0,0-7.48,3,10.42,10.42,0,0,0-1.6,11.41,21.61,21.61,0,0,0,4.58,5.52,24.65,24.65,0,0,1,4.29,4.86,6.89,6.89,0,0,1,.79,2.91,5,5,0,0,1-1.3,3.49,4.43,4.43,0,0,1-3.35,1.38,3.87,3.87,0,0,1-2.83-1.16,4.12,4.12,0,0,1-1.16-3.06,6.25,6.25,0,0,1,.22-1.59h-6l-2.62,12h6Zm50.64,0,2.69-12.06h-6.54l-1.38,6H384.21l2.25-10.54H395l1.38-6.1h-8.5L390,93.83h10.24l-1.31,6.25h6.76l2.69-12.28H378.76l-1.31,6h3.41l-5.74,26.44h-3.48l-1.38,6H399.9Zm20.34,0,1.38-6h-3.49l2.4-11h5.09l4,17.15h9.23l1.31-6h-3.64l-3.12-11.7a8.64,8.64,0,0,0,6.17-3.63,11.32,11.32,0,0,0,2.18-6.76A10.76,10.76,0,0,0,439,90.92a9.86,9.86,0,0,0-7.7-3H412.47l-1.31,6h3.56L409,120.35h-3.56l-1.38,6ZM424,93.9h4.14a4.1,4.1,0,0,1,3.12,1.16,4.23,4.23,0,0,1,1.16,3.2c0,4.07-2.25,6-6.83,6h-3.92L424,93.9Zm35.45,32.77,18-32.77h3.42l1.31-6H468.26l-1.38,6h3.2l-11.34,20.85L456.93,93.9h3.19l1.38-6H446.1l-1.38,6h3.71l3.41,32.77Zm34.43-.29,1.31-6h-5.23l5.74-26.45h3.92l1.31-6H482.57l-1.3,6h5.15l-5.74,26.45h-4.57l-1.31,6Zm25.07-6.69a7.71,7.71,0,0,1-6.1-2.69,9.76,9.76,0,0,1-2.4-6.82,16.29,16.29,0,0,1,4.43-11.34A13.24,13.24,0,0,1,525,94c4.8,0,7.48,2.11,8.14,6.32H539l2.76-12.56H535.9l-.8,3.7c-2.25-2.9-5.6-4.28-10-4.28a24.07,24.07,0,0,0-17.08,6.75c-4.79,4.51-7.19,9.81-7.19,15.84a16.14,16.14,0,0,0,5,12.2,17.56,17.56,0,0,0,12.64,4.8,20.94,20.94,0,0,0,9.74-2.4,23.54,23.54,0,0,0,8.06-6.9l-5.81-4.58c-3.56,4.65-7.41,6.83-11.62,6.83Zm48.75,6.69,2.68-12.06h-6.54l-1.38,6H552l2.26-10.54h8.5l1.3-6h-8.5l2.11-9.88h10.24l-1.3,6.25h6.75L576,87.87H546.43l-1.31,6h3.42l-5.74,26.45h-3.42l-1.38,6Z"/><path class="cls-3" d="M134.22,120a22.77,22.77,0,0,0,6.83-16.78,15.87,15.87,0,0,0-4.43-11.41c-3-3.12-7-4.64-11.92-4.64a21.65,21.65,0,0,0-16.42,7.19,23.7,23.7,0,0,0-6.68,16.56,15.59,15.59,0,0,0,4.5,11.41,15.23,15.23,0,0,0,11.34,4.5A22.52,22.52,0,0,0,134.22,120Zm-6.1-5.74c-2.26,3.93-5.31,5.82-9.23,5.82a7.23,7.23,0,0,1-5.67-2.26,8.85,8.85,0,0,1-2-6.24,22.46,22.46,0,0,1,3.49-12c2.32-3.71,5.37-5.6,9.08-5.6a7.28,7.28,0,0,1,5.52,2.33,8.19,8.19,0,0,1,2.18,5.88,24.56,24.56,0,0,1-3.34,12.06ZM155,126.38l1.3-6h-3.77l5.3-24.63,9.44,31h7.92l7.05-32.84h3.42l1.3-6H173.89l-1.31,6H176l-4.43,20.63L163.35,87.8H149.91l-1.31,6.1H152l-5.67,26.45h-3.41l-1.38,6Zm53.54,0,1.31-6h-4.14l5.66-26.45H217l-2,9h5.81l3.27-15H192l-3.27,15h5.81l2-9h5.67l-5.67,26.45h-4.14l-1.31,6Zm29.86,0,1.31-6h-5.23l5.73-26.45h3.93l1.31-6H227.14l-1.31,6H231l-5.74,26.45h-4.58l-1.31,6Zm15.76,0,1.31-6h-3.41L257.8,93.9h.94l4.14,32.48h3.85L285.4,93.9h.73l-5.81,26.45H276.9l-1.3,6h15.76l1.38-6H289l5.67-26.45h2.76l1.31-6H282.06L268.84,111,265.71,87.8h-16l-1.31,6H252l-5.74,26.44h-3.56l-1.3,6h12.78Zm71.35,0,2.68-12.06h-6.54l-1.38,6H309.89l2.25-10.54h8.5l1.31-6h-8.5l2.1-9.88H325.8l-1.31,6.25h6.75l2.69-12.28H304.36l-1.3,6h3.41l-5.74,26.45h-3.41l-1.38,6Z"/><path class="cls-4" d="M117.44,166.19V163H110.1v-6.1h6.54v-3.2H110.1v-5.16h7.05v-3.19H105.74v20.85Zm2.39-21v21h4.07v-21Zm10.9,12c0-1.24,0-3.49,1.89-3.49s1.89,2,1.89,3.49Zm7.85,2.32c.14-4.72-.44-8.28-6-8.28s-6,3.42-6,7.41c0,4.58.73,7.85,6,7.85A6.21,6.21,0,0,0,137,165a5.06,5.06,0,0,0,1.6-3.78h-4.14c0,1.23-.29,2.61-1.75,2.61-1.81,0-1.89-2.61-1.89-4.36Zm13.87-2.76c0-3.85-2.18-5.52-5.95-5.52-5.38,0-6,3.42-6,7.41,0,4.58.73,7.85,6,7.85,3.85,0,5.95-1.75,5.95-5.67h-4.06c0,1.89-.59,3.05-1.89,3.05-1.53,0-1.89-.94-1.89-5.45,0-3,.14-4.57,1.89-4.57,1.3,0,1.81.72,1.81,2.9Zm.73-2.68h1.67v9c0,.88.44,3.27,4,3.27a13.79,13.79,0,0,0,2.1-.14v-2.54a2.26,2.26,0,0,1-.72.07c-1.31,0-1.31-.73-1.31-1.82v-7.84H161v-2.55h-2.11v-4.14l-4.07,1.82v2.32h-1.67v2.55Zm9.15-2.55v14.68h4.07v-8c0-1.46.08-3.56,3.64-3.35v-3.63a3.66,3.66,0,0,0-3.78,2.18h-.07v-1.89Zm13.59,0h-4.07v14.68h4.07V151.51Zm-4.14-6.32v3.2h4.07v-3.2Zm18.74,11.55c0-3.85-2.18-5.52-6-5.52-5.38,0-6,3.42-6,7.41,0,4.58.72,7.85,6,7.85,3.85,0,6-1.75,6-5.67h-4.07c0,1.89-.58,3.05-1.88,3.05-1.53,0-1.89-.94-1.89-5.45,0-3,.14-4.57,1.89-4.57,1.3,0,1.81.72,1.81,2.9Zm9.52,2.33c0,1.6.36,4.87-2,4.87-1.31,0-1.53-1.31-1.53-2.33,0-2.61,1.53-2.4,3.56-2.54Zm4-2.91c0-2.69-.66-4.94-5.89-4.94a6.66,6.66,0,0,0-3.85.95,4,4,0,0,0-1.53,3.56h4c0-1.17.15-2.26,1.53-2.26s1.67.88,1.67,2.18v1.17c-3.78-.08-7.56.14-7.56,5,0,2.54,1,4.65,3.92,4.65a4.13,4.13,0,0,0,3.86-2.25h.07l.14,2h3.78c-.07-.87-.22-1.82-.22-2.76v-7.27Zm3.19-11v21h4.07v-21Zm22.67,10.54a5.23,5.23,0,1,0-5.23,5.23,5.21,5.21,0,0,0,5.23-5.23Zm12.57-2.11v-8.43h-4.36v21h4.36v-9.37h5v9.37h4.36v-21h-4.36v8.43Zm16.2,3.56c0-1.24,0-3.49,1.89-3.49s1.89,2,1.89,3.49Zm7.84,2.32c.15-4.72-.43-8.28-5.95-8.28s-6,3.42-6,7.41c0,4.58.73,7.85,6,7.85a6.21,6.21,0,0,0,4.36-1.45,5.09,5.09,0,0,0,1.59-3.78h-4.14c0,1.23-.29,2.61-1.74,2.61-1.82,0-1.89-2.61-1.89-4.36Zm9.45-.43c0,1.6.36,4.87-2,4.87-1.3,0-1.52-1.31-1.52-2.33,0-2.61,1.52-2.4,3.56-2.54Zm4-2.91c0-2.69-.65-4.94-5.88-4.94a6.66,6.66,0,0,0-3.85.95,4,4,0,0,0-1.53,3.56h4c0-1.17.14-2.26,1.52-2.26s1.68.88,1.68,2.18v1.17c-3.78-.08-7.56.14-7.56,5,0,2.54,1,4.65,3.92,4.65a4.1,4.1,0,0,0,3.85-2.25h.08l.14,2h3.78c-.07-.87-.22-1.82-.22-2.76v-7.27Zm1.17-2.1h1.67v9c0,.88.43,3.27,4,3.27a14,14,0,0,0,2.11-.14v-2.54a2.35,2.35,0,0,1-.73.07c-1.3,0-1.3-.73-1.3-1.82v-7.84H289v-2.55h-2.1v-4.14l-4.07,1.82v2.32h-1.67v2.55Zm13.58-2.55h-4.07v14.68h4.07V151.51Zm-4.07-6.32v3.2h4.07v-3.2Zm11.26,6.32h-4.06v14.68h4.06v-10.1c0-1.31.22-2.33,1.53-2.33s1.53,1,1.53,2.33v10.1H309V154.42c0-2-1.74-3.2-3.63-3.2a4.62,4.62,0,0,0-2,.44,3.74,3.74,0,0,0-1.46,1.38h0v-1.53Zm13.52,7.78c0-4.51.29-5.53,1.81-5.53s1.67,1.82,1.67,5.09-.21,4.65-1.67,4.65c-2-.07-1.81-2.83-1.81-4.21Zm3.63-7.78v1.75H319a3.34,3.34,0,0,0-3.27-2c-4.29,0-4.36,4.07-4.36,7.34s-.22,7.41,4.28,7.41a3.46,3.46,0,0,0,3.13-1.74h.07v2.83c0,1.45-.51,2.47-1.52,2.47a1.65,1.65,0,0,1-1.38-.58,2.22,2.22,0,0,1-.37-1.45h-4c.07,3.56,2.68,4.35,5.74,4.35,5.66,0,5.59-4,5.59-5V151.59H319Zm25.86,14.68h4.29L346,161.9c1.46-2.25,1.46-5,1.46-7.19h-3.56a14,14,0,0,1-.44,4.21l-3.27-4.28c1.67-1.53,3.56-2.91,3.56-5.67,0-3.2-3.34-4.07-5.3-4.07-3.56,0-6.32,1.75-6.32,4.07a8.5,8.5,0,0,0,2.32,5.23c-2.18,1.45-4.14,3.2-4.14,6,0,4.07,2.69,6.39,7.48,6.39,2.26,0,4.22-.36,5.81-2l1.31,1.67ZM341.05,162a3.75,3.75,0,0,1-3.19,1.38,2.94,2.94,0,0,1-3.2-3.19,4.81,4.81,0,0,1,2.11-3.42l4.28,5.23Zm-3.41-9.8a5,5,0,0,1-1.53-3,1.73,1.73,0,0,1,1.82-1.68,1.68,1.68,0,0,1,1.81,1.82,4,4,0,0,1-2.1,2.91Zm25.79,14.38c4.07,0,6.32-1.82,6.32-7.41h-4.36c-.07,1.67,0,4.29-2,4.29-2.47,0-2.77-2.33-2.77-7.7s.3-7.7,2.77-7.7c1.3,0,1.81,1,1.81,3.85h4.29c.14-4.51-1.6-7-6.1-7-7.27,0-7.27,5.31-7.27,10.83.15,5.45.15,10.82,7.34,10.82Zm14-2.69c-1.53,0-1.89-.94-1.89-5.45,0-3,.15-4.57,1.89-4.57s1.89,1.52,1.89,4.57c0,4.51-.44,5.45-1.89,5.45Zm0,2.62c5.3,0,6-3.2,6-7.85,0-4-.58-7.41-6-7.41s-6,3.42-6,7.41c-.07,4.65.66,7.85,6,7.85Zm13.95-2.62c-1.53,0-1.89-.94-1.89-5.45,0-3,.14-4.57,1.89-4.57s1.89,1.52,1.89,4.57c0,4.51-.44,5.45-1.89,5.45Zm0,2.62c5.3,0,6-3.2,6-7.85,0-4-.59-7.41-6-7.41s-6,3.42-6,7.41c-.07,4.65.65,7.85,6,7.85ZM400,145.19v21h4.07v-21Zm11.55,6.32h-4.06v14.68h4.06V151.51Zm-4.06-6.32v3.2h4.06v-3.2Zm11.26,6.32h-4.07v14.68h4.07v-10.1c0-1.31.21-2.33,1.52-2.33s1.53,1,1.53,2.33v10.1h4.07V154.42c0-2-1.75-3.2-3.64-3.2a4.65,4.65,0,0,0-2,.44,3.66,3.66,0,0,0-1.45,1.38h-.08v-1.53Zm13.51,7.78c0-4.51.29-5.53,1.82-5.53s1.67,1.82,1.67,5.09-.22,4.65-1.67,4.65c-2-.07-1.82-2.83-1.82-4.21Zm3.63-7.78v1.75h-.07a3.34,3.34,0,0,0-3.27-2c-4.29,0-4.36,4.07-4.36,7.34S428,166,432.52,166a3.44,3.44,0,0,0,3.12-1.74h.07v2.83c0,1.45-.5,2.47-1.52,2.47a1.65,1.65,0,0,1-1.38-.58,2.28,2.28,0,0,1-.37-1.45h-4c.07,3.56,2.69,4.35,5.74,4.35,5.67,0,5.59-4,5.59-5V151.59h-3.85Zm22.23,4.22a5.23,5.23,0,1,0-5.23,5.23,5.2,5.2,0,0,0,5.23-5.23Zm12.43-7.27h2.18c2,0,2.47,1.45,2.47,3.2,0,1.38-.88,2.83-2.18,2.83h-2.47v-6Zm-4.44,17.73h4.36v-8.57h3.27c5.16,0,5.81-3.78,5.81-6.18,0-3.85-1.59-6.25-5.59-6.25h-7.92v21Zm15.7-21v21h4.06v-21Zm14.31,21h4.21c-.07-.95-.14-2-.14-2.91V151.51h-4.07v10.17c0,1.31-.22,2.26-1.53,2.26s-1.52-.95-1.52-2.26V151.51H489v11.77c0,2,1.74,3.2,3.63,3.2a4.48,4.48,0,0,0,2-.44,3.72,3.72,0,0,0,1.45-1.38h.07v1.53Zm10.61-14.68H502.7v14.68h4.07v-10.1c0-1.31.21-2.33,1.52-2.33s1.53,1,1.53,2.33v10.1h4v-10.1c0-1.31.22-2.33,1.53-2.33s1.52,1,1.52,2.33v10.1h4.07V154.42c0-2-1.74-3.2-3.63-3.2a4.27,4.27,0,0,0-3.78,1.89,3.64,3.64,0,0,0-3.27-1.89,3.73,3.73,0,0,0-3.48,1.75h0v-1.46Zm22.37,12.43c-1.38,0-1.67-1.53-1.67-5.23,0-2.91,0-5,1.67-5s1.74,2,1.74,5c0,3.7-.29,5.23-1.74,5.23Zm-5.81,2.25h3.92v-1.6h.07a3.42,3.42,0,0,0,3.49,1.89c4.22,0,4.07-4.72,4.07-7.7s.15-7.56-4-7.56a3.67,3.67,0,0,0-3.34,1.67h-.07v-7.7H523.4v21Zm18.45-14.68h-4.07v14.68h4.07V151.51Zm-4.14-6.32v3.2h4.07v-3.2Zm11.26,6.32h-4.07v14.68h4.07v-10.1c0-1.31.22-2.33,1.53-2.33s1.52,1,1.52,2.33v10.1H556V154.42c0-2-1.74-3.2-3.63-3.2a4.69,4.69,0,0,0-2,.44A3.72,3.72,0,0,0,548.9,153h0v-1.53Zm13.51,7.78c0-4.51.3-5.53,1.82-5.53s1.67,1.82,1.67,5.09-.22,4.65-1.67,4.65c-2-.07-1.82-2.83-1.82-4.21Zm3.64-7.78v1.75H566a3.33,3.33,0,0,0-3.26-2c-4.29,0-4.36,4.07-4.36,7.34s-.22,7.41,4.28,7.41a3.46,3.46,0,0,0,3.13-1.74h.07v2.83c0,1.45-.51,2.47-1.53,2.47a1.66,1.66,0,0,1-1.38-.58,2.28,2.28,0,0,1-.36-1.45h-4c.08,3.56,2.69,4.35,5.74,4.35,5.67,0,5.6-4,5.6-5V151.59h-3.85Z"/><line class="cls-5" x1="104.51" y1="135.97" x2="570.04" y2="135.97"/></svg>