<?xml version="1.0" encoding="utf-8"?>
<!-- Generator: Adobe Illustrator 24.0.0, SVG Export Plug-In . SVG Version: 6.00 Build 0)  -->
<svg version="1.1" id="Layer_1" xmlns="http://www.w3.org/2000/svg" xmlns:xlink="http://www.w3.org/1999/xlink" x="0px" y="0px"
	 viewBox="0 0 177.53 177.53" enable-background="new 0 0 177.53 177.53" xml:space="preserve">
<g>
	<path fill="#7731AC" d="M68.52,123.46c-8.44,0-12.4-5.04-12.4-13.98V68.43c0-9.07,4.28-13.98,12.47-13.98
		c7.37,0,11.46,3.84,12.21,11.4h1.26c1.57-7.49,6.23-11.84,12.91-11.84c3.27,0,5.86,1.01,7.68,2.9c1.76,1.89,2.71,4.6,2.71,8
		c0,3.27-0.88,5.73-2.64,7.43c-1.76,1.64-4.47,2.52-8.06,2.71c-8.82,0.44-12.97,5.29-12.97,14.23v20.21
		C81.68,118.42,76.96,123.46,68.52,123.46z"/>
	<path fill="#7731AC" d="M107.38,97.08c7.49,0,13.66,6.17,13.66,13.66s-6.17,13.66-13.66,13.66c-7.49,0-13.66-6.17-13.66-13.66
		S99.89,97.08,107.38,97.08z"/>
</g>
<circle fill="none" stroke="#7731AC" stroke-width="10" stroke-miterlimit="10" cx="88.58" cy="89.2" r="78.81"/>
</svg>
