<?xml version="1.0" encoding="utf-8"?>
<!-- Generator: Adobe Illustrator 24.0.0, SVG Export Plug-In . SVG Version: 6.00 Build 0)  -->
<svg version="1.1" id="Layer_1" xmlns="http://www.w3.org/2000/svg" xmlns:xlink="http://www.w3.org/1999/xlink" x="0px" y="0px"
	 viewBox="0 0 16 16" enable-background="new 0 0 16 16" xml:space="preserve">
<g>
	<circle fill="#662D91" cx="8" cy="8" r="7.22"/>
	<g>
		<path fill="#FFFFFF" d="M6.16,11.14c-0.77,0-1.14-0.46-1.14-1.28V6.1c0-0.83,0.39-1.28,1.14-1.28c0.67,0,1.05,0.35,1.12,1.04H7.4
			c0.14-0.69,0.57-1.08,1.18-1.08c0.3,0,0.54,0.09,0.7,0.27c0.16,0.17,0.25,0.42,0.25,0.73c0,0.3-0.08,0.52-0.24,0.68
			C9.13,6.61,8.88,6.69,8.56,6.7c-0.81,0.04-1.19,0.48-1.19,1.3v1.85C7.37,10.67,6.94,11.14,6.16,11.14z"/>
		<path fill="#FFFFFF" d="M9.72,8.72c0.69,0,1.25,0.56,1.25,1.25c0,0.69-0.56,1.25-1.25,1.25c-0.69,0-1.25-0.56-1.25-1.25
			C8.47,9.29,9.04,8.72,9.72,8.72z"/>
	</g>
</g>
</svg>
