<svg version="1.1" id="Layer_1" xmlns="http://www.w3.org/2000/svg" xmlns:xlink="http://www.w3.org/1999/xlink" x="0px" y="0px"
	 viewBox="0 0 186.15 196.46" enable-background="new 0 0 186.15 196.46" xml:space="preserve">
<g>
	<polygon fill="#F7941D" points="30.27,17.56 61,50.05 112.81,17.56 	"/>
	<polygon fill="#E45E25" points="61,50.05 99.44,50.05 112.81,17.56 	"/>
	<polygon fill="#F7941D" points="112.81,17.56 157.39,65.63 112.81,65.63 99.44,50.05 	"/>
	<polygon fill="#E45E25" points="143.78,82.76 112.81,65.63 157.39,65.63 	"/>
	<polygon fill="#F7941D" points="99.44,82.76 112.81,65.63 143.78,82.76 	"/>
	<polygon fill="#E45E25" points="61.26,82.76 143.78,82.76 117,117 71.54,117 	"/>
	<polygon fill="#F7941D" points="28.76,117 61.26,82.76 71.54,117 	"/>
	<polygon fill="#E45E25" points="54.22,121.83 102.52,121.83 82.76,151.68 	"/>
	<polygon fill="#F7941D" points="131.49,151.68 102.52,121.83 82.76,151.68 	"/>
	<polygon fill="#E45E25" points="109.54,178.9 82.76,151.68 131.49,151.68 	"/>
	<polygon fill="#F7941D" points="157.39,178.9 131.49,151.68 109.54,178.9 	"/>
</g>
</svg>
